<svg xmlns="http://www.w3.org/2000/svg" xmlns:v="https://svgstorm.com"
viewBox = "0 0 1000 1000"
width="1000"
height="1000">
<g fill="None" fill-opacity="0.0" stroke="#000000" stroke-opacity="0.00" stroke-width="0.3"><path d="
M 0.00 1000.00 
L 1000.00 1000.00
L 1000.00 0.00
L 0.00 0.00
L 0.00 1000.00
M 513.00 166.00 
C 556.56 170.22 608.13 179.38 646.23 199.77 C 684.33 220.17 712.96 238.40 742.75 270.25 C 772.54 302.10 790.80 331.74 808.31 371.69 C 825.81 411.64 835.54 467.31 833.67 512.67 C 831.80 558.03 819.80 607.50 800.23 646.23 C 780.66 684.96 761.24 712.68 729.75 742.75 C 698.27 772.82 668.09 790.67 628.31 808.31 C 588.52 825.94 532.61 835.48 487.33 833.67 C 442.05 831.86 392.46 819.76 353.77 800.23 C 315.08 780.70 287.29 761.20 257.25 729.75 C 227.20 698.30 209.30 668.03 191.69 628.31 C 174.09 588.58 164.48 532.49 166.33 487.33 C 168.18 442.17 180.16 392.19 199.77 353.77 C 219.39 315.35 238.62 286.70 270.25 257.25 C 301.88 227.80 331.56 207.96 371.69 191.69 C 411.82 175.43 466.84 161.53 513.00 166.00 Z"/>
</g>
<g fill="None" fill-opacity="0.0" stroke="#FFFFFF" stroke-opacity="0.95" stroke-width="0.3"><path d="
M 513.00 166.00 
C 466.84 161.53 411.82 175.43 371.69 191.69 C 331.56 207.96 301.88 227.80 270.25 257.25 C 238.62 286.70 219.39 315.35 199.77 353.77 C 180.16 392.19 168.18 442.17 166.33 487.33 C 164.48 532.49 174.09 588.58 191.69 628.31 C 209.30 668.03 227.20 698.30 257.25 729.75 C 287.29 761.20 315.08 780.70 353.77 800.23 C 392.46 819.76 442.05 831.86 487.33 833.67 C 532.61 835.48 588.52 825.94 628.31 808.31 C 668.09 790.67 698.27 772.82 729.75 742.75 C 761.24 712.68 780.66 684.96 800.23 646.23 C 819.80 607.50 831.80 558.03 833.67 512.67 C 835.54 467.31 825.81 411.64 808.31 371.69 C 790.80 331.74 772.54 302.10 742.75 270.25 C 712.96 238.40 684.33 220.17 646.23 199.77 C 608.13 179.38 556.56 170.22 513.00 166.00
M 514.00 187.00 
C 554.98 190.97 601.61 200.42 637.69 219.31 C 673.78 238.19 699.81 256.36 727.75 286.25 C 755.70 316.14 772.82 343.31 788.98 381.03 C 805.13 418.74 814.89 470.85 812.67 513.67 C 810.45 556.49 799.03 600.97 780.70 637.69 C 762.36 674.42 743.39 699.52 713.75 727.75 C 684.11 755.99 656.57 772.69 618.98 788.98 C 581.38 805.26 529.10 814.83 486.33 812.67 C 443.56 810.51 399.00 798.99 362.31 780.70 C 325.61 762.40 300.46 743.36 272.25 713.75 C 244.04 684.15 227.28 656.52 211.02 618.98 C 194.77 581.43 185.13 528.99 187.33 486.33 C 189.53 443.67 200.91 398.78 219.31 362.31 C 237.70 325.83 256.43 299.98 286.25 272.25 C 316.06 244.52 343.01 226.19 381.03 211.02 C 419.04 195.86 470.19 182.76 514.00 187.00 Z"/>
</g>
<g fill="None" fill-opacity="0.0" stroke="#000000" stroke-opacity="0.00" stroke-width="0.3"><path d="
M 514.00 187.00 
C 470.19 182.76 419.04 195.86 381.03 211.02 C 343.01 226.19 316.06 244.52 286.25 272.25 C 256.43 299.98 237.70 325.83 219.31 362.31 C 200.91 398.78 189.53 443.67 187.33 486.33 C 185.13 528.99 194.77 581.43 211.02 618.98 C 227.28 656.52 244.04 684.15 272.25 713.75 C 300.46 743.36 325.61 762.40 362.31 780.70 C 399.00 798.99 443.56 810.51 486.33 812.67 C 529.10 814.83 581.38 805.26 618.98 788.98 C 656.57 772.69 684.11 755.99 713.75 727.75 C 743.39 699.52 762.36 674.42 780.70 637.69 C 799.03 600.97 810.45 556.49 812.67 513.67 C 814.89 470.85 805.13 418.74 788.98 381.03 C 772.82 343.31 755.70 316.14 727.75 286.25 C 699.81 256.36 673.78 238.19 637.69 219.31 C 601.61 200.42 554.98 190.97 514.00 187.00
M 688.00 296.00 
C 649.23 291.01 627.46 338.20 643.31 369.69 C 659.15 401.19 677.22 423.67 685.00 459.00 C 692.78 494.33 681.64 536.03 670.22 569.22 C 658.81 602.41 651.08 637.05 638.00 669.00
C 605.39 568.78 570.15 469.37 538.00 369.00
C 549.23 368.24 562.38 368.58 573.01 366.01 C 583.63 363.44 581.65 344.64 569.99 345.01 C 558.34 345.37 544.94 346.29 533.00 347.00 C 521.06 347.71 508.30 348.18 496.00 348.00 C 483.70 347.82 470.95 348.31 459.00 347.00 C 447.05 345.69 433.62 346.96 422.00 345.00 C 410.38 343.04 404.47 359.33 414.25 364.75 C 424.03 370.17 437.98 367.09 449.00 369.00
C 455.63 385.67 459.46 401.48 466.92 418.08 C 474.39 434.67 475.91 451.43 484.93 468.07 C 493.94 484.71 489.07 502.20 482.07 519.07 C 475.07 535.95 471.55 552.35 465.22 569.22 C 458.90 586.09 454.55 603.45 448.22 620.22 C 441.90 636.99 438.06 654.86 431.00 671.00
C 396.13 571.00 363.13 469.56 329.00 369.00
C 341.64 364.63 355.82 373.74 367.23 364.23 C 378.64 354.72 364.13 340.53 351.00 345.00 C 337.87 349.47 324.67 345.59 310.99 347.99 C 297.32 350.40 280.92 346.20 267.00 348.00
C 353.37 205.34 572.07 178.92 688.00 296.00
M 746.00 370.00 
C 819.09 494.51 765.38 672.34 639.00 741.00
C 658.97 680.36 679.94 624.02 699.98 562.98 C 720.01 501.93 752.78 438.44 744.00 370.00
C 743.98 368.84 742.18 367.47 743.00 366.00
C 744.82 366.60 745.15 368.56 746.00 370.00
M 247.00 387.00 
C 290.72 508.05 335.79 628.78 379.00 750.00
C 339.32 730.62 306.79 706.61 278.75 669.25 C 250.71 631.89 231.47 589.09 225.00 541.00 C 218.53 492.91 222.77 428.80 247.00 387.00
M 506.00 524.00 
C 534.06 603.91 563.54 683.52 593.00 763.00
C 539.04 780.98 476.01 783.63 421.00 767.00
C 427.16 746.43 435.13 726.28 441.93 705.93 C 448.72 685.57 455.76 665.11 462.92 644.92 C 470.09 624.74 476.33 603.84 483.92 583.92 C 491.52 564.01 496.13 541.62 506.00 524.00 Z"/>
</g>
<g fill="None" fill-opacity="0.0" stroke="#FFFFFF" stroke-opacity="0.99" stroke-width="0.3"><path d="
M 688.00 296.00 
C 572.07 178.92 353.37 205.34 267.00 348.00
C 280.92 346.20 297.32 350.40 310.99 347.99 C 324.67 345.59 337.87 349.47 351.00 345.00 C 364.13 340.53 378.64 354.72 367.23 364.23 C 355.82 373.74 341.64 364.63 329.00 369.00
C 363.13 469.56 396.13 571.00 431.00 671.00
C 438.06 654.86 441.90 636.99 448.22 620.22 C 454.55 603.45 458.90 586.09 465.22 569.22 C 471.55 552.35 475.07 535.95 482.07 519.07 C 489.07 502.20 493.94 484.71 484.93 468.07 C 475.91 451.43 474.39 434.67 466.92 418.08 C 459.46 401.48 455.63 385.67 449.00 369.00
C 437.98 367.09 424.03 370.17 414.25 364.75 C 404.47 359.33 410.38 343.04 422.00 345.00 C 433.62 346.96 447.05 345.69 459.00 347.00 C 470.95 348.31 483.70 347.82 496.00 348.00 C 508.30 348.18 521.06 347.71 533.00 347.00 C 544.94 346.29 558.34 345.37 569.99 345.01 C 581.65 344.64 583.63 363.44 573.01 366.01 C 562.38 368.58 549.23 368.24 538.00 369.00
C 570.15 469.37 605.39 568.78 638.00 669.00
C 651.08 637.05 658.81 602.41 670.22 569.22 C 681.64 536.03 692.78 494.33 685.00 459.00 C 677.22 423.67 659.15 401.19 643.31 369.69 C 627.46 338.20 649.23 291.01 688.00 296.00 Z"/>
</g>
<g fill="None" fill-opacity="0.0" stroke="#FFFFFF" stroke-opacity="0.30" stroke-width="0.3"><path d="
M 744.00 370.00 
C 744.24 370.25 745.73 369.75 746.00 370.00
C 745.15 368.56 744.82 366.60 743.00 366.00
C 742.18 367.47 743.98 368.84 744.00 370.00 Z"/>
</g>
<g fill="None" fill-opacity="0.0" stroke="#FFFFFF" stroke-opacity="0.97" stroke-width="0.3"><path d="
M 746.00 370.00 
C 745.73 369.75 744.24 370.25 744.00 370.00
C 752.78 438.44 720.01 501.93 699.98 562.98 C 679.94 624.02 658.97 680.36 639.00 741.00
C 765.38 672.34 819.09 494.51 746.00 370.00 Z"/>
</g>
<g fill="None" fill-opacity="0.0" stroke="#FFFFFF" stroke-opacity="0.98" stroke-width="0.3"><path d="
M 247.00 387.00 
C 222.77 428.80 218.53 492.91 225.00 541.00 C 231.47 589.09 250.71 631.89 278.75 669.25 C 306.79 706.61 339.32 730.62 379.00 750.00
C 335.79 628.78 290.72 508.05 247.00 387.00 Z"/>
</g>
<g fill="None" fill-opacity="0.0" stroke="#FFFFFF" stroke-opacity="0.98" stroke-width="0.3"><path d="
M 506.00 524.00 
C 496.13 541.62 491.52 564.01 483.92 583.92 C 476.33 603.84 470.09 624.74 462.92 644.92 C 455.76 665.11 448.72 685.57 441.93 705.93 C 435.13 726.28 427.16 746.43 421.00 767.00
C 476.01 783.63 539.04 780.98 593.00 763.00
C 563.54 683.52 534.06 603.91 506.00 524.00 Z"/>
</g>
<g fill="#000000" fill-opacity="0.00" stroke="None">
<path d="
M 0.00 1000.00 
L 1000.00 1000.00
L 1000.00 0.00
L 0.00 0.00
L 0.00 1000.00
M 513.00 166.00 
C 556.56 170.22 608.13 179.38 646.23 199.77 C 684.33 220.17 712.96 238.40 742.75 270.25 C 772.54 302.10 790.80 331.74 808.31 371.69 C 825.81 411.64 835.54 467.31 833.67 512.67 C 831.80 558.03 819.80 607.50 800.23 646.23 C 780.66 684.96 761.24 712.68 729.75 742.75 C 698.27 772.82 668.09 790.67 628.31 808.31 C 588.52 825.94 532.61 835.48 487.33 833.67 C 442.05 831.86 392.46 819.76 353.77 800.23 C 315.08 780.70 287.29 761.20 257.25 729.75 C 227.20 698.30 209.30 668.03 191.69 628.31 C 174.09 588.58 164.48 532.49 166.33 487.33 C 168.18 442.17 180.16 392.19 199.77 353.77 C 219.39 315.35 238.62 286.70 270.25 257.25 C 301.88 227.80 331.56 207.96 371.69 191.69 C 411.82 175.43 466.84 161.53 513.00 166.00 Z"/>
</g>
<g fill="#FFFFFF" fill-opacity="0.95" stroke="None">
<path d="
M 513.00 166.00 
C 466.84 161.53 411.82 175.43 371.69 191.69 C 331.56 207.96 301.88 227.80 270.25 257.25 C 238.62 286.70 219.39 315.35 199.77 353.77 C 180.16 392.19 168.18 442.17 166.33 487.33 C 164.48 532.49 174.09 588.58 191.69 628.31 C 209.30 668.03 227.20 698.30 257.25 729.75 C 287.29 761.20 315.08 780.70 353.77 800.23 C 392.46 819.76 442.05 831.86 487.33 833.67 C 532.61 835.48 588.52 825.94 628.31 808.31 C 668.09 790.67 698.27 772.82 729.75 742.75 C 761.24 712.68 780.66 684.96 800.23 646.23 C 819.80 607.50 831.80 558.03 833.67 512.67 C 835.54 467.31 825.81 411.64 808.31 371.69 C 790.80 331.74 772.54 302.10 742.75 270.25 C 712.96 238.40 684.33 220.17 646.23 199.77 C 608.13 179.38 556.56 170.22 513.00 166.00
M 514.00 187.00 
C 554.98 190.97 601.61 200.42 637.69 219.31 C 673.78 238.19 699.81 256.36 727.75 286.25 C 755.70 316.14 772.82 343.31 788.98 381.03 C 805.13 418.74 814.89 470.85 812.67 513.67 C 810.45 556.49 799.03 600.97 780.70 637.69 C 762.36 674.42 743.39 699.52 713.75 727.75 C 684.11 755.99 656.57 772.69 618.98 788.98 C 581.38 805.26 529.10 814.83 486.33 812.67 C 443.56 810.51 399.00 798.99 362.31 780.70 C 325.61 762.40 300.46 743.36 272.25 713.75 C 244.04 684.15 227.28 656.52 211.02 618.98 C 194.77 581.43 185.13 528.99 187.33 486.33 C 189.53 443.67 200.91 398.78 219.31 362.31 C 237.70 325.83 256.43 299.98 286.25 272.25 C 316.06 244.52 343.01 226.19 381.03 211.02 C 419.04 195.86 470.19 182.76 514.00 187.00 Z"/>
</g>
<g fill="#000000" fill-opacity="0.00" stroke="None">
<path d="
M 514.00 187.00 
C 470.19 182.76 419.04 195.86 381.03 211.02 C 343.01 226.19 316.06 244.52 286.25 272.25 C 256.43 299.98 237.70 325.83 219.31 362.31 C 200.91 398.78 189.53 443.67 187.33 486.33 C 185.13 528.99 194.77 581.43 211.02 618.98 C 227.28 656.52 244.04 684.15 272.25 713.75 C 300.46 743.36 325.61 762.40 362.31 780.70 C 399.00 798.99 443.56 810.51 486.33 812.67 C 529.10 814.83 581.38 805.26 618.98 788.98 C 656.57 772.69 684.11 755.99 713.75 727.75 C 743.39 699.52 762.36 674.42 780.70 637.69 C 799.03 600.97 810.45 556.49 812.67 513.67 C 814.89 470.85 805.13 418.74 788.98 381.03 C 772.82 343.31 755.70 316.14 727.75 286.25 C 699.81 256.36 673.78 238.19 637.69 219.31 C 601.61 200.42 554.98 190.97 514.00 187.00
M 688.00 296.00 
C 649.23 291.01 627.46 338.20 643.31 369.69 C 659.15 401.19 677.22 423.67 685.00 459.00 C 692.78 494.33 681.64 536.03 670.22 569.22 C 658.81 602.41 651.08 637.05 638.00 669.00
C 605.39 568.78 570.15 469.37 538.00 369.00
C 549.23 368.24 562.38 368.58 573.01 366.01 C 583.63 363.44 581.65 344.64 569.99 345.01 C 558.34 345.37 544.94 346.29 533.00 347.00 C 521.06 347.71 508.30 348.18 496.00 348.00 C 483.70 347.82 470.95 348.31 459.00 347.00 C 447.05 345.69 433.62 346.96 422.00 345.00 C 410.38 343.04 404.47 359.33 414.25 364.75 C 424.03 370.17 437.98 367.09 449.00 369.00
C 455.63 385.67 459.46 401.48 466.92 418.08 C 474.39 434.67 475.91 451.43 484.93 468.07 C 493.94 484.71 489.07 502.20 482.07 519.07 C 475.07 535.95 471.55 552.35 465.22 569.22 C 458.90 586.09 454.55 603.45 448.22 620.22 C 441.90 636.99 438.06 654.86 431.00 671.00
C 396.13 571.00 363.13 469.56 329.00 369.00
C 341.64 364.63 355.82 373.74 367.23 364.23 C 378.64 354.72 364.13 340.53 351.00 345.00 C 337.87 349.47 324.67 345.59 310.99 347.99 C 297.32 350.40 280.92 346.20 267.00 348.00
C 353.37 205.34 572.07 178.92 688.00 296.00
M 746.00 370.00 
C 819.09 494.51 765.38 672.34 639.00 741.00
C 658.97 680.36 679.94 624.02 699.98 562.98 C 720.01 501.93 752.78 438.44 744.00 370.00
C 743.98 368.84 742.18 367.47 743.00 366.00
C 744.82 366.60 745.15 368.56 746.00 370.00
M 247.00 387.00 
C 290.72 508.05 335.79 628.78 379.00 750.00
C 339.32 730.62 306.79 706.61 278.75 669.25 C 250.71 631.89 231.47 589.09 225.00 541.00 C 218.53 492.91 222.77 428.80 247.00 387.00
M 506.00 524.00 
C 534.06 603.91 563.54 683.52 593.00 763.00
C 539.04 780.98 476.01 783.63 421.00 767.00
C 427.16 746.43 435.13 726.28 441.93 705.93 C 448.72 685.57 455.76 665.11 462.92 644.92 C 470.09 624.74 476.33 603.84 483.92 583.92 C 491.52 564.01 496.13 541.62 506.00 524.00 Z"/>
</g>
<g fill="#FFFFFF" fill-opacity="0.99" stroke="None">
<path d="
M 688.00 296.00 
C 572.07 178.92 353.37 205.34 267.00 348.00
C 280.92 346.20 297.32 350.40 310.99 347.99 C 324.67 345.59 337.87 349.47 351.00 345.00 C 364.13 340.53 378.64 354.72 367.23 364.23 C 355.82 373.74 341.64 364.63 329.00 369.00
C 363.13 469.56 396.13 571.00 431.00 671.00
C 438.06 654.86 441.90 636.99 448.22 620.22 C 454.55 603.45 458.90 586.09 465.22 569.22 C 471.55 552.35 475.07 535.95 482.07 519.07 C 489.07 502.20 493.94 484.71 484.93 468.07 C 475.91 451.43 474.39 434.67 466.92 418.08 C 459.46 401.48 455.63 385.67 449.00 369.00
C 437.98 367.09 424.03 370.17 414.25 364.75 C 404.47 359.33 410.38 343.04 422.00 345.00 C 433.62 346.96 447.05 345.69 459.00 347.00 C 470.95 348.31 483.70 347.82 496.00 348.00 C 508.30 348.18 521.06 347.71 533.00 347.00 C 544.94 346.29 558.34 345.37 569.99 345.01 C 581.65 344.64 583.63 363.44 573.01 366.01 C 562.38 368.58 549.23 368.24 538.00 369.00
C 570.15 469.37 605.39 568.78 638.00 669.00
C 651.08 637.05 658.81 602.41 670.22 569.22 C 681.64 536.03 692.78 494.33 685.00 459.00 C 677.22 423.67 659.15 401.19 643.31 369.69 C 627.46 338.20 649.23 291.01 688.00 296.00 Z"/>
</g>
<g fill="#FFFFFF" fill-opacity="0.30" stroke="None">
<path d="
M 744.00 370.00 
C 744.24 370.25 745.73 369.75 746.00 370.00
C 745.15 368.56 744.82 366.60 743.00 366.00
C 742.18 367.47 743.98 368.84 744.00 370.00 Z"/>
</g>
<g fill="#FFFFFF" fill-opacity="0.97" stroke="None">
<path d="
M 746.00 370.00 
C 745.73 369.75 744.24 370.25 744.00 370.00
C 752.78 438.44 720.01 501.93 699.98 562.98 C 679.94 624.02 658.97 680.36 639.00 741.00
C 765.38 672.34 819.09 494.51 746.00 370.00 Z"/>
</g>
<g fill="#FFFFFF" fill-opacity="0.98" stroke="None">
<path d="
M 247.00 387.00 
C 222.77 428.80 218.53 492.91 225.00 541.00 C 231.47 589.09 250.71 631.89 278.75 669.25 C 306.79 706.61 339.32 730.62 379.00 750.00
C 335.79 628.78 290.72 508.05 247.00 387.00 Z"/>
</g>
<g fill="#FFFFFF" fill-opacity="0.98" stroke="None">
<path d="
M 506.00 524.00 
C 496.13 541.62 491.52 564.01 483.92 583.92 C 476.33 603.84 470.09 624.74 462.92 644.92 C 455.76 665.11 448.72 685.57 441.93 705.93 C 435.13 726.28 427.16 746.43 421.00 767.00
C 476.01 783.63 539.04 780.98 593.00 763.00
C 563.54 683.52 534.06 603.91 506.00 524.00 Z"/>
</g>
</svg>